<svg width="1200" height="200" viewBox="0 0 1200 200" fill="none" xmlns="http://www.w3.org/2000/svg">
  <defs>
    <style>
  @keyframes rotate1 { from { transform: rotate(0deg); } to { transform: rotate(360deg); } }
  @keyframes rotate2 { from { transform: rotate(0deg); } to { transform: rotate(-360deg); } }
  @keyframes colorShift {
    0% { fill-opacity: 0.2; }
    25% { fill-opacity: 0.8; }
    50% { fill-opacity: 0.2; }
    75% { fill-opacity: 0.8; }
    100% { fill-opacity: 0.2; }
  }
  @keyframes zoom {
    0% { transform: scale(1); }
    50% { transform: scale(1.2); }
    100% { transform: scale(1); }
  }
  /* Gruppe 1 - Startet sofort */
  .polygon-1 { animation: rotate1 270s linear infinite, colorShift 36s ease-in-out infinite, zoom 54s ease-in-out infinite; transform-origin: center; }
  .polygon-2 { animation: rotate2 270s linear infinite, colorShift 36s ease-in-out infinite, zoom 54s ease-in-out infinite; transform-origin: center; animation-delay: 3s; }
  .polygon-3 { animation: rotate1 270s linear infinite, colorShift 36s ease-in-out infinite, zoom 54s ease-in-out infinite; transform-origin: center; animation-delay: 6s; }
  
  /* Gruppe 2 - Startet nach 2s */
  .polygon-4 { animation: rotate2 270s linear infinite, colorShift 36s ease-in-out infinite, zoom 54s ease-in-out infinite; transform-origin: center; animation-delay: 9s; }
  .polygon-5 { animation: rotate1 270s linear infinite, colorShift 36s ease-in-out infinite, zoom 54s ease-in-out infinite; transform-origin: center; animation-delay: 12s; }
  .polygon-6 { animation: rotate2 270s linear infinite, colorShift 36s ease-in-out infinite, zoom 54s ease-in-out infinite; transform-origin: center; animation-delay: 15s; }
  
  /* Gruppe 3 - Startet nach 4s */
  .polygon-7 { animation: rotate1 270s linear infinite, colorShift 36s ease-in-out infinite, zoom 54s ease-in-out infinite; transform-origin: center; animation-delay: 18s; }
  .polygon-8 { animation: rotate2 270s linear infinite, colorShift 36s ease-in-out infinite, zoom 54s ease-in-out infinite; transform-origin: center; animation-delay: 21s; }
  .polygon-9 { animation: rotate1 270s linear infinite, colorShift 36s ease-in-out infinite, zoom 54s ease-in-out infinite; transform-origin: center; animation-delay: 24s; }
  
  /* Gruppe 4 - Startet nach 6s */
  .polygon-10 { animation: rotate2 270s linear infinite, colorShift 36s ease-in-out infinite, zoom 54s ease-in-out infinite; transform-origin: center; animation-delay: 27s; }
  .polygon-11 { animation: rotate1 270s linear infinite, colorShift 36s ease-in-out infinite, zoom 54s ease-in-out infinite; transform-origin: center; animation-delay: 30s; }
  .polygon-12 { animation: rotate2 270s linear infinite, colorShift 36s ease-in-out infinite, zoom 54s ease-in-out infinite; transform-origin: center; animation-delay: 33s; }
</style>
    <linearGradient id="readmeOverlay" x1="0" x2="1" y1="0" y2="0" gradientUnits="objectBoundingBox">
      <stop offset="0" stop-color="#0B2649" stop-opacity="0.72"/>
      <stop offset="0.5" stop-color="#0B2649" stop-opacity="0.5"/>
      <stop offset="1" stop-color="#0B2649" stop-opacity="0"/>
    </linearGradient>
  </defs>
  <!-- Background: current README header template -->
  <g transform="translate(600,100) scale(1.171875) translate(-512,-512)"><rect x="0" y="0" width="1024" height="1024" fill="#1ea1b9" />
<g transform="scale(4.000000) translate(0.5 0.5)">
<polygon class="polygon-1" fill="#57c8b9" fill-opacity="0.501961" points="0,0 268,-15 0,148" />
<polygon class="polygon-2" fill="#0077b4" fill-opacity="0.501961" points="257,271 260,56 54,251" />
<polygon class="polygon-3" fill="#00c4d1" fill-opacity="0.501961" points="-16,271 8,62 162,237" />
<polygon class="polygon-4" fill="#3f82a3" fill-opacity="0.501961" points="245,167 105,10 271,-16" />
<polygon class="polygon-5" fill="#36cbc0" fill-opacity="0.501961" points="-16,152 108,127 4,-16" />
<polygon class="polygon-6" fill="#0081b5" fill-opacity="0.501961" points="87,246 271,263 249,122" />
<polygon class="polygon-7" fill="#53c3bb" fill-opacity="0.501961" points="163,11 -9,61 4,-16" />
<polygon class="polygon-8" fill="#009ec3" fill-opacity="0.501961" points="174,127 162,271 13,247" />
<polygon class="polygon-9" fill="#369db2" fill-opacity="0.501961" points="162,-16 195,113 94,92" />
<polygon class="polygon-10" fill="#16b6bf" fill-opacity="0.501961" points="130,165 -16,166 79,71" />
<polygon class="polygon-11" fill="#02c0d2" fill-opacity="0.501961" points="74,266 5,137 -16,254" />
<polygon class="polygon-12" fill="#4484a4" fill-opacity="0.501961" points="271,77 187,21 252,-16" />
</g></g>
  <!-- Dark overlay for contrast -->
  <rect width="1200" height="200" fill="url(#readmeOverlay)"/>
  <!-- Regenfass logo -->
  <g transform="translate(40, 20) scale(0.17142857142857143)" fill="none">
      <path fill="#FFFFFF" d="M820.1 162.6l-46.4-61.2-.2-.2h-7.3v78h8.9v-61.4l46.2 61.2.1.2h7.6v-78h-8.9zM683.6 101.2h9.1v78h-9.1zM601.1 134.1H564v-32.9h-9.1v78h9.1v-35.9h37.1v35.9h9.1v-78h-9.1zM434.1 110.4h19.3v68.8h9.2v-68.8h18.9v-9.2h-47.4zM960.1 101.2H948l-36.5 36.7v-36.7h-9.1v78h9.1v-38.6l35.9 38.5.1.1h12.8l-38.1-40.1zM1346.6 142.1c1.9-1.4 3.6-3 4.9-4.9 1.3-1.9 2.4-4 3.2-6.2.8-2.3 1.2-4.7 1.2-7.1 0-3.1-.6-6.1-1.8-8.8-1.2-2.7-2.8-5.1-4.8-7.1s-4.4-3.6-7.1-4.8c-2.7-1.2-5.7-1.8-8.7-1.8h-29.2v78h9.1v-32.9h17.4l18 32.9h10.3l-18-34.1c1.9-.9 3.8-1.9 5.5-3.2zm.2-18.3c0 1.8-.4 3.6-1.1 5.2-.7 1.6-1.7 3-2.9 4.2-1.2 1.2-2.6 2.2-4.2 2.9-1.6.7-3.4 1.1-5.2 1.1h-20.1v-26.8h20.1c1.8 0 3.6.4 5.2 1.1 1.6.7 3.1 1.7 4.3 2.9 1.2 1.2 2.2 2.6 2.9 4.2.6 1.7 1 3.4 1 5.2zM1432.1 101.2v9.2h19.3v68.8h9.2v-68.8h18.9v-9.2zM1221.7 112.3c-3-3.6-6.9-6.6-11.4-8.8-4.6-2.2-9.9-3.3-15.9-3.3s-11.3 1.1-15.8 3.3c-4.5 2.2-8.3 5.1-11.3 8.8-3 3.6-5.3 7.9-6.9 12.6-1.5 4.7-2.3 9.7-2.3 14.9 0 5.2.8 10.2 2.3 15 1.5 4.8 3.8 9.1 6.9 12.8 3 3.7 6.8 6.7 11.3 8.9 4.5 2.2 9.8 3.4 15.8 3.4s11.3-1.1 15.9-3.4c4.6-2.2 8.4-5.2 11.4-8.9s5.3-8 6.9-12.8c1.5-4.8 2.3-9.8 2.3-15 0-5.2-.8-10.2-2.3-14.9-1.6-4.7-3.9-9-6.9-12.6zm-.1 27.6c0 4.2-.6 8.2-1.7 11.9-1.1 3.7-2.9 7-5.1 9.8-2.3 2.8-5.1 5-8.5 6.6s-7.4 2.4-11.9 2.4c-4.4 0-8.4-.8-11.7-2.5-3.3-1.6-6.2-3.9-8.4-6.7-2.3-2.8-4-6.1-5.1-9.8-1.2-3.7-1.7-7.7-1.7-11.8s.6-8.1 1.7-11.8c1.1-3.7 2.9-7 5.1-9.7 2.3-2.8 5.1-5 8.4-6.6 3.3-1.6 7.3-2.4 11.7-2.4 4.5 0 8.5.8 11.9 2.5 3.4 1.6 6.2 3.9 8.5 6.6 2.3 2.8 4 6 5.1 9.7 1.1 3.7 1.7 7.7 1.7 11.8zM1078.1 107.9c-2-2-4.4-3.6-7.1-4.8-2.7-1.2-5.7-1.8-8.7-1.8H1033v78h9.1v-32.9h20.1c3.1 0 6-.6 8.7-1.7s5.1-2.8 7.1-4.8 3.6-4.4 4.8-7.1c1.2-2.7 1.8-5.7 1.8-8.8s-.6-6.1-1.8-8.8c-1.1-2.9-2.7-5.3-4.7-7.3zm-2.5 15.9c0 1.8-.4 3.6-1.1 5.2-.7 1.6-1.7 3-2.9 4.2-1.2 1.2-2.6 2.2-4.2 2.9-1.6.7-3.4 1.1-5.2 1.1h-20.1v-26.8h20.1c1.8 0 3.6.4 5.2 1.1 1.6.7 3.1 1.7 4.3 2.9 1.2 1.2 2.2 2.6 2.9 4.2.6 1.7 1 3.4 1 5.2z"/>
      <path fill="none" d="M158.9 71h-14.1l-2 29.6h16.1zM157.8 224.2c1.4-22.2 5.5-29.7 5.5-43.2 0-13.5-6.4-19.8-6.4-30.6 0-7.9 2.8-12.6 3.7-22.6.3-2.7-.3-7.4-1.7-13.9h-20.5l-9.9 139.8c7.2-2.8 16.7-5.5 28.6-7.1-.1-6.2.2-13.7.7-22.4z"/>
      <path fill="#1eb8d1" d="M130.9 220.1v-.4.4z"/>
      <path fill="#ea592d" d="M133.6 59.4h6.9c17.1-27.7 32.2 0 32.2 0h6.1v10.8L246 53c-19-31.8-53.7-53-93.3-53-36.2 0-68.3 17.8-88.1 45.1l-62.2-11L0 47.2l133.6 23.5V59.4z"/>
      <path fill="#1eb8d1" d="M184.6 100.3v13.4H181l7.4 103.4c39.3-12.9 68.8-47.5 74.3-89.6l53.2 9.4 2.3-13.1-133.6-23.5zM124.7 218.5l7.9-105.3H129v-12.5L44.9 113c0 50.2 33.7 92.6 79.8 105.5z"/>
      <path fill="#1a2846" d="M223.9 263.4c-.2-.9-3.4-1.9-5.2-1.9-8 .2-14.3-2-19.2-7.2-2.2-2.4-4.7-4.7-8.9-4.2l-9.7-136.4h3.6v-13.4h-8l-1.9-30.1h4.1V59.4h-6.1s-15.1-27.7-32.2 0h-6.9v11.3h4.8l-2.5 30H129v12.5h3.7l-10.8 143.6c-1.1.5-2.1 1-3 1.5-2.4 1.1-7.3 4.1-12.7 7.3-4.2 2.4-8.3 5.1-12.5 7.8-2.4 1.5-4.5 2.8-5.7 3.6l.3.9c24.5-.3 44.5-9.7 66.2-14.6-7.8 4.3-15.6 8.6-24.6 13.7 2.3-.3 3-.2 3.6-.4 16-4 32.5-6.7 49.1-6.1 10.1.3 19.9 2.7 29.7 4.9 9.9 2.2 19.8 3.3 29.9 4.5.3-.6.5-1.2.8-1.7-10.9-1.6-17.4-6.3-19.1-14.8zM144.8 71h14.1v29.5h-16.1l2-29.5zm13 153.2c-.6 8.7-.8 16.1-.7 22.5-11.9 1.6-21.4 4.3-28.6 7.1l9.9-139.8h20.5c1.4 6.5 1.9 11.2 1.7 13.9-.9 10-3.7 14.7-3.7 22.6 0 10.8 6.4 17.1 6.4 30.6s-4 20.9-5.5 43.1z"/>

  </g>
  <!-- Title (system UI stack) -->
  <text x="40" y="130" font-family="system-ui, sans-serif" font-size="32" font-weight="700" fill="#FFFFFF">Web Application</text>
</svg>
