<?xml version="1.0" encoding="UTF-8"?>
<svg xmlns="http://www.w3.org/2000/svg" width="24" height="24" viewBox="0 0 24 24" fill="none" role="img" aria-labelledby="regenfass-title">
  <title id="regenfass-title">Regenfass</title>
  <desc>Regenfass logo: cloud with rain above barrel (Tabler Icons cloud-rain + barrel, light variant for dark backgrounds)</desc>
  <g stroke="#00BCD4" stroke-width="2" stroke-linecap="round" stroke-linejoin="round">
    <!-- Cloud-rain (Tabler: cloud-rain), top half -->
    <g transform="translate(2, 0) scale(0.55)">
      <path d="M7 18a4.6 4.4 0 0 1 0 -9a5 4.5 0 0 1 11 2h1a3.5 3.5 0 0 1 0 7" />
      <path d="M11 13v2m0 3v2m4 -5v2m0 3v2" />
    </g>
    <!-- Barrel (Tabler: barrel), bottom half -->
    <g transform="translate(0, 11) scale(0.52)">
      <path d="M7.278 4h9.444a2 2 0 0 1 1.841 1.22c.958 2.26 1.437 4.52 1.437 6.78c0 2.26 -.479 4.52 -1.437 6.78a2 2 0 0 1 -1.841 1.22h-9.444a2 2 0 0 1 -1.841 -1.22c-.958 -2.26 -1.437 -4.52 -1.437 -6.78c0 -2.26 .479 -4.52 1.437 -6.78a2 2 0 0 1 1.841 -1.22" />
      <path d="M14 4c.667 2.667 1 5.333 1 8s-.333 5.333 -1 8" />
      <path d="M10 4c-.667 2.667 -1 5.333 -1 8s.333 5.333 1 8" />
      <path d="M4.5 16h15" />
      <path d="M19.5 8h-15" />
    </g>
  </g>
</svg>
